# xmcd
#
# Track frame offsets:
#	150
#	11021
#	22997
#	33349
#	45521
#	55727
#	76781
#	90171
#	104252
#	124003
#	137565
#	149289
#	161679
#	173321
#	185832
#
# Disc length: 2639 seconds
#
# Revision: 3
# Processed by: cddbd v1.5.2PL0 Copyright (c) Steve Scherf et al.
# Submitted via: audiograbber 1.83.01
#
DISCID=ad0a4d0f
DTITLE=Various Artist - Lifetime Of Country Romance - Always On My Mind - Disc 1
DYEAR=2006
DGENRE=Country
TTITLE0=Hank Locklin - Please Help Me, I'm Falling
TTITLE1=Charley Pride - It's Gonna Take A Little Bit Longer
TTITLE2=George Jones - Walk Through This World With Me
TTITLE3=Tammy Wynette - Stand By Your Man
TTITLE4=Jim Reeves - Is It Really Over
TTITLE5=Marty Robbins - El Paso
TTITLE6=Charlie Rich - Behind Closed Doors
TTITLE7=Lefty Frizzell - Always Late
TTITLE8=Willie Nelson - Georgia On My Mind
TTITLE9=Johnny Cash - If I Were A Carpenter
TTITLE10=Ray Price - Crazy Arms
TTITLE11=Leon Payne - I Love You Because
TTITLE12=Eddy Arnold and His Tennessee Plowboys - Bouquet Of Roses
TTITLE13=Skeeter Davis - (I Can't Help You) I'm Falling Too
TTITLE14=Elvis Presley - Love Me Tender
EXTD=
EXTT0=
EXTT1=
EXTT2=
EXTT3=
EXTT4=
EXTT5=
EXTT6=
EXTT7=
EXTT8=
EXTT9=
EXTT10=
EXTT11=
EXTT12=
EXTT13=
EXTT14=
PLAYORDER=
